<?xml version="1.0" encoding="utf-8"?>
<!-- Generator: Adobe Illustrator 26.0.0, SVG Export Plug-In . SVG Version: 6.00 Build 0)  -->
<svg version="1.1" id="图层_1" xmlns="http://www.w3.org/2000/svg" xmlns:xlink="http://www.w3.org/1999/xlink" x="0px" y="0px"
	 viewBox="0 0 123.6 123.5" style="enable-background:new 0 0 123.6 123.5;" xml:space="preserve">
<style type="text/css">
	.st0{fill:#FFFFFF;}
</style>
<g>
	<path class="st0" d="M52.8,29.5c4.6,0,8.3-3.7,8.3-8.3c0-4.6-3.7-8.3-8.3-8.3c-4.6,0-8.3,3.7-8.3,8.3
		C44.5,25.7,48.2,29.5,52.8,29.5z"/>
	<path class="st0" d="M93,91.1c1.3,2.1,4.4,3,6.6,1.7c2.3-1.4,3-4.2,1.7-6.6L87.2,61.7c-0.9-1.5-2.4-2.3-4-2.3H62.5l-0.2-6.2h15
		c2.1-0.1,3.7-1.7,3.7-3.8c0-2.1-1.6-3.7-3.7-3.8H61.9l-0.5-7.1c-0.3-4.3-4-7.8-8.4-7.5c-4.4,0.2-7.8,4.1-7.5,8.5l1.4,25.1
		c0.4,4.4,4.1,7.5,8.4,7.5h26.8C82.1,72.1,93,91.1,93,91.1z"/>
	<path class="st0" d="M58.1,100.5c-13.6,0-24.6-11-24.6-24.6c0-7.4,3.4-14.1,8.6-18.6l-0.4-7.7C32.9,55.1,27,64.8,27,75.9
		C27,93.1,40.9,107,58.1,107c12.6,0,23.5-7.6,28.3-18.5L82,81C79.7,92.1,69.9,100.5,58.1,100.5z"/>
</g>
</svg>
