<?xml version="1.0" encoding="utf-8"?>
<!-- Generator: Adobe Illustrator 26.0.0, SVG Export Plug-In . SVG Version: 6.00 Build 0)  -->
<svg version="1.1" id="图层_1" xmlns="http://www.w3.org/2000/svg" xmlns:xlink="http://www.w3.org/1999/xlink" x="0px" y="0px"
	 viewBox="0 0 587 365" style="enable-background:new 0 0 587 365;" xml:space="preserve">
<style type="text/css">
	.st0{fill:none;stroke:#000000;stroke-width:16;stroke-miterlimit:10;}
</style>
<g>
	<path class="st0" d="M49.62,181.99c0,0,124.22,48.61,228.32-36.1"/>
	<path class="st0" d="M310.71,145.9"/>
	<path class="st0" d="M539.04,181.99"/>
	<path class="st0" d="M47.98,77.67c0,0,136.71-57.67,244.94,52.79"/>
	<path class="st0" d="M537.73,183.1c0,0-136.71,57.67-244.94-52.79"/>
	<path class="st0" d="M310.77,114.84c0,0,30.13-35.7,43.54-87.8c0-8.74,31.06-7.77,31.06,0c0,17.47-0.97,36.12-0.97,39.8
		c0,3.88,29.12,3.88,29.12,0c0-4.85,0.97-35.12,0.97-41.74c0-5.82,33.01-5.82,33.01,0c0,6.8,0,36.89,0,40.77s29.12,4.85,29.12,0.97
		c0-5.77,0-33.98,0-41.74c0-6.8,33.01-6.8,33.01,0v38.83c-0.27,12.59,16.49,9.63,29.87,16.33"/>
	<path class="st0" d="M-60.78,71.33"/>
	<path class="st0" d="M-31.93,42.7"/>
	<line class="st0" x1="431.27" y1="109.8" x2="431.8" y2="150.35"/>
	<line class="st0" x1="481.48" y1="109.8" x2="482.01" y2="150.35"/>
	<line class="st0" x1="379.95" y1="109.8" x2="380.48" y2="150.35"/>
	<g>
		<g>
			<path d="M66.38,349.43V213.87h27.66v58.58h50.92v-58.58h27.66v135.57h-27.66V286H94.04v63.43H66.38z"/>
			<path d="M299.42,350.94c-11.42,0-20.93-1.67-28.52-5.02c-7.59-3.35-13.34-7.98-17.26-13.89c-3.92-5.91-6.2-12.77-6.85-20.59
				l24.48-4.52c0.49,4.8,1.59,9.43,3.3,13.89c1.71,4.46,4.53,8.12,8.45,10.96c3.92,2.85,9.38,4.27,16.4,4.27
				c7.18,0,12.61-1.37,16.28-4.1c3.67-2.73,5.51-6.67,5.51-11.8c0-6.13-2.04-11.07-6.12-14.81c-4.08-3.74-9.22-7.5-15.42-11.3
				l-33.29-20.08c-6.53-3.9-11.34-8.17-14.44-12.8c-3.1-4.63-4.65-10.35-4.65-17.16c0-9.93,4.16-17.63,12.48-23.1
				c8.32-5.46,19.66-8.2,34.03-8.2c7.83,0,14.72,0.7,20.69,2.09c5.96,1.4,10.93,3.54,14.93,6.44c4,2.9,7.18,6.56,9.55,10.96
				c2.36,4.41,3.96,9.57,4.77,15.48l-23.5,4.35c-0.49-4.46-1.47-8.56-2.94-12.3c-1.47-3.74-4.04-6.75-7.71-9.04
				c-3.67-2.29-8.94-3.43-15.79-3.43c-6.86,0-12.2,1.25-16.04,3.77c-3.84,2.51-5.75,6.22-5.75,11.13c0,4.13,1.02,7.53,3.06,10.21
				c2.04,2.68,5.34,5.41,9.91,8.2l33.54,20.08c7.5,4.46,14.11,9.79,19.83,15.98c5.71,6.19,8.57,13.53,8.57,22.01
				c0,6.7-2.04,12.47-6.12,17.32c-4.08,4.85-9.67,8.56-16.77,11.13C316.92,349.66,308.72,350.94,299.42,350.94z"/>
			<path d="M467.1,350.94c-14.04,0-24.93-2.01-32.68-6.02c-7.75-4.02-13.14-9.43-16.16-16.24c-3.02-6.8-4.53-14.39-4.53-22.76
				v-47.87c0-9.15,1.51-17.13,4.53-23.93c3.02-6.8,8.4-12.08,16.16-15.82c7.75-3.74,18.64-5.61,32.68-5.61
				c12.4,0,22.23,1.56,29.5,4.69c7.26,3.12,12.48,7.59,15.67,13.39c3.18,5.8,4.77,12.78,4.77,20.92v10.71h-26.19v-9.54
				c0-5.02-0.37-9.46-1.1-13.31c-0.73-3.85-2.73-6.83-6-8.95c-3.27-2.12-8.73-3.18-16.4-3.18c-7.83,0-13.55,1.15-17.14,3.43
				c-3.59,2.29-5.92,5.52-6.98,9.71c-1.06,4.18-1.59,9.07-1.59,14.64v53.72c0,6.81,0.81,12.19,2.45,16.15
				c1.63,3.96,4.32,6.78,8.08,8.45c3.75,1.67,8.81,2.51,15.18,2.51c7.5,0,12.89-1.14,16.16-3.43c3.26-2.29,5.3-5.44,6.12-9.46
				c0.81-4.02,1.22-8.7,1.22-14.06v-10.04h26.19v10.04c0,8.26-1.47,15.54-4.41,21.84c-2.94,6.3-8,11.21-15.18,14.73
				C490.27,349.18,480.16,350.94,467.1,350.94z"/>
		</g>
	</g>
	<polygon points="97.31,81.37 79.8,84.65 79.03,172.86 96.54,176.21 	"/>
	<polygon points="188.38,173.98 204.77,169.51 204.77,90.38 188.04,84.72 	"/>
	<polygon points="150.1,180.67 133.36,181.79 133.36,79.14 150.1,80.25 	"/>
</g>
</svg>
