<svg id="图层_1" data-name="图层 1" xmlns="http://www.w3.org/2000/svg" viewBox="0 0 498.21 338.94"><defs><style>.cls-1,.cls-2{fill:none;stroke-width:16px;}.cls-1,.cls-4{stroke:#fff;}.cls-1,.cls-2,.cls-4{stroke-miterlimit:10;}.cls-2{stroke:#000;}.cls-3,.cls-4{fill:#fff;}.cls-4{stroke-width:0;}</style></defs><path class="cls-1" d="M29.62,198S153.84,246.6,257.94,161.9" transform="translate(-24.87 -28)"/><path class="cls-2" d="M290.71,161.9" transform="translate(-24.87 -28)"/><path class="cls-2" d="M519,198" transform="translate(-24.87 -28)"/><path class="cls-1" d="M28,93.67S164.69,36,272.92,146.46" transform="translate(-24.87 -28)"/><path class="cls-1" d="M517.73,199.1S381,256.77,272.79,146.31" transform="translate(-24.87 -28)"/><path class="cls-1" d="M290.77,130.84S320.9,95.14,334.31,43c0-8.74,31.06-7.77,31.06,0,0,17.47-1,36.12-1,39.8,0,3.88,29.13,3.88,29.13,0,0-4.85,1-35.12,1-41.74,0-5.83,33-5.83,33,0V81.87c0,3.88,29.13,4.85,29.13,1V41.1c0-6.8,33-6.8,33,0V79.93c-.27,12.59,16.49,9.63,29.88,16.32" transform="translate(-24.87 -28)"/><path class="cls-2" d="M-80.78,87.33" transform="translate(-24.87 -28)"/><path class="cls-2" d="M-51.93,58.7" transform="translate(-24.87 -28)"/><line class="cls-1" x1="386.41" y1="97.8" x2="386.93" y2="138.35"/><line class="cls-1" x1="436.62" y1="97.8" x2="437.14" y2="138.35"/><line class="cls-1" x1="335.08" y1="97.8" x2="335.61" y2="138.35"/><path class="cls-3" d="M46.38,365.43V229.87H74v58.58H125V229.87h27.66V365.43H125V302H74v63.43Z" transform="translate(-24.87 -28)"/><path class="cls-3" d="M279.42,366.94q-17.15,0-28.52-5T233.64,348a43.16,43.16,0,0,1-6.85-20.59l24.48-4.52a53.92,53.92,0,0,0,3.3,13.89,23.91,23.91,0,0,0,8.45,11q5.87,4.26,16.4,4.26,10.77,0,16.28-4.1t5.51-11.79q0-9.21-6.12-14.82A101.5,101.5,0,0,0,279.66,310L246.37,290q-9.8-5.85-14.44-12.8T227.28,260q0-14.9,12.48-23.09t34-8.2a91,91,0,0,1,20.68,2.09,41.08,41.08,0,0,1,14.94,6.44,32.2,32.2,0,0,1,9.54,11,45.74,45.74,0,0,1,4.78,15.49L300.23,268a47.65,47.65,0,0,0-2.94-12.3,18.48,18.48,0,0,0-7.71-9q-5.5-3.44-15.79-3.43t-16,3.76Q252,250.79,252,258.15a16.37,16.37,0,0,0,3.06,10.21q3.06,4,9.92,8.2l33.53,20.09a87.76,87.76,0,0,1,19.83,16,31.38,31.38,0,0,1,8.57,22A26.05,26.05,0,0,1,320.79,352q-6.12,7.29-16.77,11.13A72.11,72.11,0,0,1,279.42,366.94Z" transform="translate(-24.87 -28)"/><path class="cls-3" d="M447.1,366.94q-21.06,0-32.68-6t-16.15-16.24a55.32,55.32,0,0,1-4.53-22.76V274.05q0-13.73,4.53-23.93t16.15-15.82q11.63-5.6,32.68-5.6,18.6,0,29.5,4.68t15.67,13.39q4.77,8.7,4.77,20.92V278.4H470.85v-9.54a71.93,71.93,0,0,0-1.1-13.3,13.25,13.25,0,0,0-6-9q-4.9-3.16-16.4-3.18-11.76,0-17.14,3.44a15.64,15.64,0,0,0-7,9.7,60.11,60.11,0,0,0-1.59,14.65v53.72q0,10.21,2.45,16.15a15.23,15.23,0,0,0,8.08,8.46q5.63,2.5,15.18,2.5,11.25,0,16.15-3.43a14.66,14.66,0,0,0,6.12-9.45,71,71,0,0,0,1.23-14.06v-10H497v10a51.12,51.12,0,0,1-4.41,21.84q-4.39,9.46-15.17,14.73T447.1,366.94Z" transform="translate(-24.87 -28)"/><polygon class="cls-4" points="52.45 69.37 34.94 72.65 34.16 160.86 51.67 164.21 52.45 69.37"/><polygon class="cls-3" points="143.51 161.98 159.9 157.51 159.9 78.38 143.17 72.72 143.51 161.98"/><polygon class="cls-3" points="105.23 168.67 88.49 169.79 88.49 67.14 105.23 68.25 105.23 168.67"/></svg>